<?xml version="1.0" encoding="UTF-8"?>
<svg id="Electric_Purple" data-name="Electric Purple" xmlns="http://www.w3.org/2000/svg" xmlns:xlink="http://www.w3.org/1999/xlink" viewBox="0 0 1440 1440">
  <defs>
    <style>
      .cls-1 {
        fill: #fff;
      }

      .cls-2 {
        fill: #0a0a0a;
      }

      .cls-3 {
        fill: url(#linear-gradient);
      }
    </style>
    <linearGradient id="linear-gradient" x1="343.43" y1="896.46" x2="1133.5" y2="724.22" gradientUnits="userSpaceOnUse">
      <stop offset="0" stop-color="#9d4edd"/>
      <stop offset=".55" stop-color="#44acf0"/>
      <stop offset=".99" stop-color="#00f5ff"/>
    </linearGradient>
  </defs>
  <rect class="cls-2" x="0" width="1440" height="1440"/>
  <g>
    <path class="cls-1" d="M329.08,459.77l49.3.52v190.35h-49.3v-94.15l-42.79-9.24v103.38h-49.64v-210.89l49.64,11.3v78.75l42.79,9.24v-79.27Z"/>
    <path class="cls-1" d="M535.85,487.19v99.1c0,14.15-.06,25.16-.17,33.03-.12,7.87-.4,16.89-.86,27.04-.46,10.15-1.15,17.86-2.05,23.11-.92,5.25-2.17,11.18-3.77,17.8-1.6,6.62-3.65,11.41-6.16,14.38-2.51,2.96-5.48,6.22-8.9,9.76-3.42,3.54-7.53,5.99-12.32,7.36-4.79,1.37-10.16,2.51-16.09,3.42-5.94.91-12.9,1.37-20.88,1.37-12.55,0-23.45-1.6-32.69-4.79-9.24-3.2-16.26-7.02-21.05-11.47-4.79-4.45-8.56-9.76-11.3-15.92-2.74-6.16-4.45-11.41-5.14-15.75-.68-4.34-1.03-8.79-1.03-13.35h49.64v8.56c0,1.59.17,3.99.51,7.19.34,3.19.74,5.82,1.2,7.87.45,2.05,1.2,4.33,2.22,6.85,1.03,2.51,2.28,4.5,3.77,5.99,1.48,1.48,3.42,2.79,5.82,3.94,2.4,1.14,5.08,1.71,8.04,1.71,4.11,0,7.58-1.26,10.44-3.77,2.85-2.51,4.96-5.42,6.33-8.73,1.37-3.31,2.45-7.7,3.25-13.18.8-5.48,1.25-10.1,1.37-13.86.11-3.77.17-8.39.17-13.86v-18.49c-1.14,12.1-9.82,18.14-26.02,18.14-11.64,0-21.8-2.57-30.47-7.7-8.68-5.14-15.58-12.44-20.71-21.91-5.14-9.47-8.9-20.42-11.3-32.87-2.4-12.44-3.59-26.53-3.59-42.28v-84.2l49.64,14.38v98.92c0,2.97.05,7.14.17,12.49.11,5.37.4,9.47.86,12.32.45,2.86,1.03,6.33,1.71,10.44.68,4.11,1.59,7.31,2.74,9.59,1.14,2.28,2.45,4.57,3.94,6.85,1.48,2.28,3.36,3.94,5.65,4.96,2.28,1.03,4.79,1.54,7.53,1.54,2.05,0,3.99-.63,5.82-1.88,1.82-1.25,3.36-2.91,4.62-4.96,1.25-2.05,2.45-4.5,3.59-7.36,1.14-2.85,1.99-5.59,2.57-8.22.57-2.62,1.08-5.59,1.54-8.9.45-3.31.8-5.99,1.03-8.04.22-2.05.4-4.28.51-6.68.11-2.4.17-3.71.17-3.94v-98.42l49.64.35v2.05Z"/>
    <path class="cls-1" d="M658.74,486.67c17.34,0,30.3,6.67,38.85,20.03,8.56,13.35,12.84,31.78,12.84,55.29,0,28.76-5.02,50.72-15.06,65.9-10.05,15.18-24.31,22.76-42.79,22.76-13.69,0-24.82-4.11-33.38-12.32-8.56-8.21-13.52-18.83-14.89-31.84v117.08c-9.36,0-19.97-1.54-31.84-4.62-11.87-3.08-17.8-6.91-17.8-11.47v-220.8l49.64,11.3c-.46,5.48-.68,16.78-.68,33.89,2.74-14.15,8.9-25.22,18.49-33.21,9.59-7.99,21.79-11.98,36.63-11.98ZM653.26,629.77c3.42-4.56,5.76-16.54,7.02-35.94,1.25-19.4.68-38-1.71-55.8-2.4-17.8-6.33-26.7-11.81-26.7-2.05,0-4.68.91-7.87,2.74-3.2,1.83-6.62,4.51-10.27,8.04-3.65,3.54-6.91,8.79-9.76,15.75-2.86,6.96-4.74,14.89-5.65,23.79-.23,24.42,5.36,44.39,16.77,59.91,7.53,10.04,14.26,13.69,20.2,10.95,1.14-.68,2.17-1.59,3.08-2.74Z"/>
    <path class="cls-1" d="M790.19,633.53c3.42,0,6.5-.97,9.24-2.91,2.74-1.94,4.91-4.56,6.5-7.87,1.59-3.31,2.96-6.9,4.11-10.78,1.14-3.88,1.94-7.76,2.4-11.64.45-3.88.8-7.41,1.03-10.61.22-3.19.34-5.82.34-7.87v-3.08h49.64c0,19.17-6.45,35.94-19.34,50.32-12.9,14.38-30.18,21.57-51.86,21.57s-38.63-6.67-51.52-20.03c-12.9-13.35-19.34-31.89-19.34-55.63,0-12.32,1.42-23.73,4.28-34.23,2.85-10.49,7.19-19.85,13.01-28.07,5.82-8.22,13.69-14.6,23.62-19.17,9.93-4.56,21.4-6.85,34.4-6.85,9.13,0,17.34,1.37,24.65,4.11,7.3,2.74,13.23,6.39,17.8,10.95,4.56,4.57,8.5,9.58,11.81,15.06,3.31,5.48,5.7,10.95,7.19,16.43,1.48,5.48,2.68,10.5,3.59,15.06.91,4.57,1.37,8.33,1.37,11.3l.34,4.11h-92.09c-.23,3.2-.29,6.16-.17,8.9.11,2.74.22,5.82.34,9.24.11,3.42.4,7.08.86,10.95.45,3.88.97,7.76,1.54,11.64.57,3.88,1.37,7.59,2.4,11.13,1.03,3.54,2.17,6.62,3.42,9.24,1.25,2.63,2.79,4.74,4.62,6.33,1.82,1.6,3.77,2.4,5.82,2.4ZM796.36,504.13c-5.71,0-10.44,2.4-14.21,7.19-3.77,4.79-6.22,9.81-7.36,15.06-1.14,5.25-1.71,10.39-1.71,15.41h40.74c-.23-1.14-.4-2.57-.51-4.28-.12-1.71-.57-4.73-1.37-9.07-.8-4.33-1.83-8.16-3.08-11.47-1.26-3.31-2.97-6.27-5.14-8.9-2.17-2.62-4.62-3.94-7.36-3.94Z"/>
    <path class="cls-1" d="M977.76,439.76c20.99,0,38.11,5.54,51.35,16.6,13.23,11.07,19.85,25.85,19.85,44.33v91.76c0,17.8-5.82,31.96-17.46,42.45-11.64,10.5-29.56,15.75-53.75,15.75s-41.76-5.36-53.4-16.09c-11.64-10.72-17.46-24.65-17.46-41.76v-94.5c0-16.43,6.73-30.3,20.2-41.59,13.46-11.3,30.35-16.95,50.67-16.95ZM999.32,592.45v-91.76c0-13.46-.74-23.28-2.22-29.44-1.49-6.16-3.54-10.04-6.16-11.64-2.63-1.59-7.02-2.4-13.18-2.4-7.31,0-12.67,4.05-16.09,12.15-3.42,8.1-5.13,17.52-5.13,28.24v94.16c0,14.84,1.82,25.45,5.48,31.84,3.65,6.39,8.9,9.58,15.75,9.58,3.42,0,5.93-.11,7.53-.34,1.59-.23,3.48-1.03,5.65-2.4,2.17-1.37,3.71-3.42,4.62-6.16.91-2.74,1.76-6.73,2.57-11.98.8-5.25,1.2-11.86,1.2-19.85Z"/>
    <path class="cls-1" d="M1149.6,493.86c4.56-3.88,9.98-6.27,16.26-7.19,6.27-.91,12.15-.46,17.63,1.37,5.48,1.83,10.15,4.85,14.04,9.07,3.88,4.23,5.82,8.96,5.82,14.21v139.33h-49.3c.22-3.19.51-8.95.86-17.29.34-8.33.63-18.14.86-29.44.22-11.3.34-22.13.34-32.52s-.4-19.17-1.2-26.36c-.8-7.19-1.88-10.78-3.25-10.78-6.39,0-12.44,6.28-18.14,18.83-5.71,12.55-10.1,27.73-13.18,45.53-3.08,17.8-4.62,35.15-4.62,52.03h-49.64v-188.61l49.64,12.32v89.68c1.59-11.18,6.04-24.25,13.35-39.2,7.3-14.95,14.15-25.27,20.54-30.98Z"/>
  </g>
  <path class="cls-3" d="M991.55,869.41l-484.64,110.11c-61.33,13.94-121.74-24.59-134.93-86.04h0c-13.19-61.45,25.85-122.57,87.18-136.51l484.64-110.11c61.33-13.94,121.74,24.59,134.93,86.04h0c13.19,61.45-25.85,122.57-87.18,136.51Z"/>
  <path class="cls-1" d="M417.38,1000.24c5.13-26.44,9.52-51.7,13.17-75.78,3.65-24.07,5.48-48.64,5.48-73.71,0-19.14-1.38-38.08-4.14-56.84-1.56-10.59-3.72-21.24-6.48-31.96-3.24-12.61,6.31-24.88,19.33-24.88h39.54c2.96,6.51,5.08,13.08,6.36,19.69,1.28,6.61,1.92,13.37,1.92,20.28,0,9.08-.99,18.21-2.96,27.38-1.98,9.18-4.54,18.21-7.7,27.09-3.16,8.88-6.56,17.47-10.21,25.75-3.65,8.29-7.25,16.18-10.8,23.68-4.54,9.47-8.39,18.01-11.55,25.61-3.16,7.6-4.74,14.16-4.74,19.69,0,3.75.84,6.76,2.52,9.03,1.67,2.27,3.8,4.05,6.36,5.33,2.56,1.29,5.28,2.12,8.14,2.52,2.86.4,5.57.59,8.14.59,7.11,0,15-.93,23.68-2.81,8.68-1.87,17.02-4.14,25.01-6.81,7.99-2.66,15.19-5.37,21.61-8.14,6.41-2.76,11-5.03,13.76-6.81h0c-3.72,22.78-19.72,41.63-41.58,49.03l-94.89,32.08Z"/>
  <path class="cls-1" d="M1054.7,757.56c0,10.47-1.99,20.68-5.93,30.64-3.94,9.96-9.87,18.8-17.75,26.5-7.9,7.68-17.72,13.9-29.46,18.65-11.75,4.73-25.41,7.1-41,7.1h-33.74c0,18.15,1.82,35.43,5.47,51.81,3.65,16.37,10.9,32.17,21.76,47.36h-70.15c6.31-20.73,11.26-42.39,14.8-64.98,3.56-22.6,5.33-46.43,5.33-71.49,0-9.02-.25-17.97-.77-26.84,11.52,9.99,39.31,31.35,68.23,32.67.94.03,1.86.06,2.8.06,29.03,0,52.54-23.51,52.54-52.54s-23.51-52.52-52.54-52.52c-18.29,0-34.4,9.35-43.81,23.51l.8.89,28.72-1.59-36.55,16.48-.02-.03-38.63-66.8c5.13-.99,12.67-1.97,22.64-2.97,9.96-.99,21.76-1.48,35.38-1.48,17.75,0,33.6,2.48,47.5,7.41,13.92,4.93,25.65,11.44,35.23,19.54,9.58,8.08,16.83,17.21,21.76,27.38,4.93,10.16,7.41,20.57,7.41,31.23Z"/>
  <path class="cls-1" d="M725.68,824.9c11.12,61.02-.66,168.4-83.34,161.52-85.77-20.09-98.84-126.57-73.17-197.35,33.04-94.45,159.56-61,156.51,35.84ZM675.51,942.9c41.57-28.99,44.11-104.14,21.17-145.67-6.58-13.13-14.74-39.19-33.67-32.01-67.68,14.64-71.29,191.5,12.5,177.68Z"/>
  <path class="cls-1" d="M715.88,836.37c-11.12-61.02.66-168.4,83.34-161.52,85.77,20.09,98.84,126.57,73.17,197.35-33.04,94.45-159.56,61-156.51-35.84ZM766.05,718.36c-41.57,28.99-44.11,104.14-21.17,145.67,6.58,13.13,14.74,39.19,33.67,32.01,67.68-14.64,71.29-191.5-12.5-177.68Z"/>
  <polygon class="cls-1" points="656.89 902.96 707.7 920.92 734.03 871.05 700.63 895.99 656.89 902.96"/>
  <polygon class="cls-1" points="332.78 906.8 383.59 924.76 409.92 874.89 376.52 899.82 332.78 906.8"/>
  <polygon class="cls-1" points="785.68 854.5 734.87 836.54 708.54 886.41 741.94 861.47 785.68 854.5"/>
  <polygon class="cls-1" points="1122.06 744.16 1075.17 717.6 1040.53 762.1 1077.77 743.39 1122.06 744.16"/>
  <path class="cls-1" d="M366.36,902.35s-9.25-59.38,31.48-107.79c0,0-30.21,54.73-15.41,101.84,0,0-4.9,19.93-16.07,5.95Z"/>
  <path class="cls-1" d="M1088.69,741.36s-4.77,69.06-46.52,102.18c0,0,37.46-49.88,29.75-98.66,0,0,7.77-18.99,16.77-3.52Z"/>
</svg>